# xmcd
#
# Track frame offsets: 
#        150
#        48327
#        85825
#        154747
#        173095
#        182880
#
# Disc length: 3176 seconds
#
# Revision: 6
# Processed by: cddbd v1.5.2PL0 Copyright (c) Steve Scherf et al.
# Submitted via: ExactAudioCopyFreeDBPlugin 1.0
#
DISCID=420c6606
DTITLE=Miles Davis - We Want Miles (live recordings from 1981)
DYEAR=1982
DGENRE=Jazz
TTITLE0=Jean Pierre
TTITLE1=Back Seat Betty
TTITLE2=Fast Track
TTITLE3=Jean Pierre
TTITLE4=Ursula
TTITLE5=Aïda
EXTD=
EXTT0=
EXTT1=
EXTT2=
EXTT3=
EXTT4=
EXTT5=
PLAYORDER=
